<svg width="32" height="32" viewBox="0 0 32 32" fill="none" xmlns="http://www.w3.org/2000/svg">
<rect x="0.000976562" width="32" height="32" rx="6" fill="#F02C2C"/>
<g clip-path="url(#clip0_3213_6380)">
<path fill-rule="evenodd" clip-rule="evenodd" d="M12.9354 9.33317C12.9354 8.96498 13.2338 8.6665 13.602 8.6665H18.402C18.7702 8.6665 19.0687 8.96498 19.0687 9.33317C19.0687 9.70136 18.7702 9.99984 18.402 9.99984H13.602C13.2338 9.99984 12.9354 9.70136 12.9354 9.33317ZM8.6687 11.7332C8.6687 11.365 8.96718 11.0665 9.33537 11.0665H22.6687C23.0369 11.0665 23.3354 11.365 23.3354 11.7332C23.3354 12.1014 23.0369 12.3998 22.6687 12.3998H21.7354V20.2665C21.7354 21.968 20.3702 23.3332 18.6687 23.3332H13.3354C11.6219 23.3332 10.2687 21.956 10.2687 20.1998V12.3998H9.33537C8.96718 12.3998 8.6687 12.1014 8.6687 11.7332ZM11.602 12.3998V20.1998C11.602 21.2437 12.3821 21.9998 13.3354 21.9998H18.6687C19.6338 21.9998 20.402 21.2316 20.402 20.2665V12.3998H11.602ZM14.202 14.1332C14.5702 14.1332 14.8687 14.4316 14.8687 14.7998V19.6665C14.8687 20.0347 14.5702 20.3332 14.202 20.3332C13.8338 20.3332 13.5354 20.0347 13.5354 19.6665V14.7998C13.5354 14.4316 13.8338 14.1332 14.202 14.1332ZM17.802 14.1332C18.1702 14.1332 18.4687 14.4316 18.4687 14.7998V19.6665C18.4687 20.0347 18.1702 20.3332 17.802 20.3332C17.4338 20.3332 17.1354 20.0347 17.1354 19.6665V14.7998C17.1354 14.4316 17.4338 14.1332 17.802 14.1332Z" fill="white"/>
</g>
<defs>
<clipPath id="clip0_3213_6380">
<rect width="16" height="16" fill="white" transform="translate(8.00195 8)"/>
</clipPath>
</defs>
</svg>
