<svg width="25" height="25" viewBox="0 0 25 25" fill="none" xmlns="http://www.w3.org/2000/svg">
<path d="M12.1479 6.16797C8.54795 6.16797 5.64795 9.06797 5.64795 12.668C5.64795 16.268 8.54795 19.168 12.1479 19.168C15.7479 19.168 18.6479 16.268 18.6479 12.668C18.6479 9.06797 15.7479 6.16797 12.1479 6.16797ZM12.1479 17.068C9.64795 17.068 7.64795 15.068 7.64795 12.568C7.64795 10.068 9.64795 8.06797 12.1479 8.06797C14.6479 8.06797 16.6479 10.068 16.6479 12.568C16.6479 15.068 14.6479 17.068 12.1479 17.068Z" fill="white" fill-opacity="0.87"/>
<path d="M12.1479 5.56802C12.7479 5.56802 13.1479 5.16802 13.1479 4.56802V2.96802C13.1479 2.36802 12.7479 1.96802 12.1479 1.96802C11.5479 1.96802 11.1479 2.36802 11.1479 2.96802V4.56802C11.1479 5.06802 11.5479 5.56802 12.1479 5.56802Z" fill="white" fill-opacity="0.87"/>
<path d="M5.44785 7.66804C5.64785 7.86804 5.94785 7.96804 6.14785 7.96804C6.34785 7.96804 6.64785 7.86804 6.84785 7.66804C7.24785 7.26804 7.24785 6.66804 6.84785 6.26804L5.74785 5.16804C5.34785 4.76804 4.74785 4.76804 4.34785 5.16804C3.94785 5.56804 3.94785 6.16804 4.34785 6.56804L5.44785 7.66804Z" fill="white" fill-opacity="0.87"/>
<path d="M4.74795 12.968C4.74795 12.368 4.34795 11.968 3.74795 11.968H2.14795C1.54795 11.968 1.14795 12.368 1.14795 12.968C1.14795 13.568 1.54795 13.968 2.14795 13.968H3.74795C4.24795 13.968 4.74795 13.568 4.74795 12.968Z" fill="white" fill-opacity="0.87"/>
<path d="M5.44785 18.268L4.34785 19.368C3.94785 19.768 3.94785 20.368 4.34785 20.768C4.54785 20.968 4.84785 21.068 5.04785 21.068C5.24785 21.068 5.54785 20.968 5.74785 20.768L6.84785 19.668C7.24785 19.268 7.24785 18.668 6.84785 18.268C6.44785 17.868 5.84785 17.868 5.44785 18.268Z" fill="white" fill-opacity="0.87"/>
<path d="M12.1479 20.368C11.5479 20.368 11.1479 20.768 11.1479 21.368V22.968C11.1479 23.568 11.5479 23.968 12.1479 23.968C12.7479 23.968 13.1479 23.568 13.1479 22.968V21.368C13.1479 20.868 12.7479 20.368 12.1479 20.368Z" fill="white" fill-opacity="0.87"/>
<path d="M18.848 18.268C18.448 17.868 17.8479 17.868 17.4479 18.268C17.0479 18.668 17.0479 19.268 17.4479 19.668L18.5479 20.768C18.7479 20.968 19.048 21.068 19.248 21.068C19.448 21.068 19.7479 20.968 19.9479 20.768C20.3479 20.368 20.3479 19.768 19.9479 19.368L18.848 18.268Z" fill="white" fill-opacity="0.87"/>
<path d="M22.1479 11.968H20.5479C19.9479 11.968 19.5479 12.368 19.5479 12.968C19.5479 13.568 19.9479 13.968 20.5479 13.968H22.1479C22.7479 13.968 23.1479 13.568 23.1479 12.968C23.1479 12.368 22.7479 11.968 22.1479 11.968Z" fill="white" fill-opacity="0.87"/>
<path d="M18.1479 7.96804C18.4479 7.96804 18.648 7.86804 18.848 7.66804L19.9479 6.56804C20.3479 6.16804 20.3479 5.56804 19.9479 5.16804C19.5479 4.76804 18.9479 4.76804 18.5479 5.16804L17.4479 6.26804C17.0479 6.66804 17.0479 7.26804 17.4479 7.66804C17.6479 7.86804 17.8479 7.96804 18.1479 7.96804Z" fill="white" fill-opacity="0.87"/>
</svg>
